<svg width="35" height="24" viewBox="0 0 35 24" fill="none" xmlns="http://www.w3.org/2000/svg">
<path d="M15 22C15.5523 22 16 21.5523 16 21C16 20.4477 15.5523 20 15 20C14.4477 20 14 20.4477 14 21C14 21.5523 14.4477 22 15 22Z" stroke="black" stroke-width="2" stroke-linecap="round" stroke-linejoin="round"/>
<path d="M26 22C26.5523 22 27 21.5523 27 21C27 20.4477 26.5523 20 26 20C25.4477 20 25 20.4477 25 21C25 21.5523 25.4477 22 26 22Z" stroke="black" stroke-width="2" stroke-linecap="round" stroke-linejoin="round"/>
<path d="M7 1H11L13.68 14.39C13.7714 14.8504 14.0219 15.264 14.3876 15.5583C14.7532 15.8526 15.2107 16.009 15.68 16H25.4C25.8693 16.009 26.3268 15.8526 26.6925 15.5583C27.0581 15.264 27.3086 14.8504 27.4 14.39L29 6H12" stroke="black" stroke-width="2" stroke-linecap="round" stroke-linejoin="round"/>
</svg>
